<?xml version="1.0" standalone="no"?><!DOCTYPE svg PUBLIC "-//W3C//DTD SVG 1.1//EN" "http://www.w3.org/Graphics/SVG/1.1/DTD/svg11.dtd"><svg t="1590045447120" class="icon" viewBox="0 0 1024 1024" version="1.1" xmlns="http://www.w3.org/2000/svg" p-id="1998" xmlns:xlink="http://www.w3.org/1999/xlink" width="200" height="200"><defs><style type="text/css"></style></defs><path d="M137.5 252.5h178v504h-178z" fill="#D4E3FF" p-id="1999"></path><path d="M879 786.9H145.6c-20 0-36.3-16.3-36.3-36.3V273.2c0-20 16.3-36.3 36.3-36.3H879c20 0 36.3 16.3 36.3 36.3v477.4c0 20-16.3 36.3-36.3 36.3z m-733.4-518c-2.4 0-4.3 1.9-4.3 4.3v477.4c0 2.4 1.9 4.3 4.3 4.3H879c2.4 0 4.3-1.9 4.3-4.3V273.2c0-2.4-1.9-4.3-4.3-4.3H145.6z" fill="#4780FF" p-id="2000"></path><path d="M315.1 416.5c-8.8 0-16-7.2-16-16.1V274.6c0-8.9 7.2-16.1 16-16.1s16 7.2 16 16.1v125.8c0 8.9-7.1 16.1-16 16.1zM315.1 561.8c-8.8 0-16-7.3-16-16.3V486c0-9 7.2-16.3 16-16.3s16 7.3 16 16.3v59.5c0 9.1-7.1 16.3-16 16.3zM315.1 771.6c-8.8 0-16-7.1-16-16v-106c0-8.8 7.2-16 16-16s16 7.1 16 16v106.1c0 8.8-7.1 15.9-16 15.9z" fill="#4780FF" p-id="2001"></path><path d="M460.5 641.9c-8.8 0-16-7.1-16-15.9-0.1-8.8 7.1-16 15.9-16.1l69.8-0.5 229.2-219.1c6.4-6.1 16.5-5.9 22.6 0.5 6.1 6.4 5.9 16.5-0.5 22.6L547.8 636.9c-3 2.8-6.9 4.4-11 4.4l-76.1 0.5c-0.1 0.1-0.1 0.1-0.2 0.1z" fill="#FF6D47" p-id="2002"></path><path d="M672.4 512.4H520.5c-8.9 0-16.1-7.2-16.1-16s7.2-16 16.1-16h151.9c8.9 0 16.1 7.2 16.1 16s-7.3 16-16.1 16z" fill="#FF6D47" p-id="2003"></path></svg>