<?xml version="1.0" standalone="no"?><!DOCTYPE svg PUBLIC "-//W3C//DTD SVG 1.1//EN" "http://www.w3.org/Graphics/SVG/1.1/DTD/svg11.dtd"><svg t="1590045515598" class="icon" viewBox="0 0 1024 1024" version="1.1" xmlns="http://www.w3.org/2000/svg" p-id="4445" xmlns:xlink="http://www.w3.org/1999/xlink" width="200" height="200"><defs><style type="text/css"></style></defs><path d="M132.95 181.14h487.1v774.94h-487.1z" fill="#5B52AF" p-id="4446"></path><path d="M376.5 181.14h243.55v774.94H376.5z" fill="#493C8E" p-id="4447"></path><path d="M130.61 179.24L376.5 45.12l245.9 134.12z" fill="#FF5C97" p-id="4448"></path><path d="M376.5 45.12l122.95 67.06 122.95 67.06H376.5z" fill="#FF2E71" p-id="4449"></path><path d="M622.4 509h298.05v447.08H622.4z" fill="#5AE2E2" p-id="4450"></path><path d="M771.42 509h149.03v447.08H771.42z" fill="#00A599" p-id="4451"></path><path d="M707.68 666.47h-22.9c-6.37 0-11.54-5.17-11.54-11.54v-31.35c0-6.37 5.17-11.54 11.54-11.54h22.9c6.37 0 11.54 5.17 11.54 11.54v31.35c0 6.38-5.17 11.54-11.54 11.54z" fill="#FFD39F" p-id="4452"></path><path d="M696.23 612.05h11.45c3.19 0 6.07 0.96 8.16 2.5s3.38 3.68 3.38 6.04v37.36c0 2.36-1.29 4.49-3.38 6.04-2.09 1.54-4.97 2.5-8.16 2.5h-11.45v-54.44z" fill="#F2A65A" p-id="4453"></path><path d="M782.04 666.47h-22.9c-6.37 0-11.54-5.17-11.54-11.54v-31.35c0-6.37 5.17-11.54 11.54-11.54h22.9c6.37 0 11.54 5.17 11.54 11.54v31.35c0 6.38-5.16 11.54-11.54 11.54z" fill="#FFD39F" p-id="4454"></path><path d="M770.59 612.05h11.45c3.19 0 6.07 0.96 8.16 2.5s3.38 3.68 3.38 6.04v37.36c0 2.36-1.29 4.49-3.38 6.04-2.09 1.54-4.97 2.5-8.16 2.5h-11.45v-54.44z" fill="#F2A65A" p-id="4455"></path><path d="M856.41 666.47h-22.9c-6.37 0-11.54-5.17-11.54-11.54v-31.35c0-6.37 5.17-11.54 11.54-11.54h22.9c6.37 0 11.54 5.17 11.54 11.54v31.35c-0.01 6.38-5.17 11.54-11.54 11.54z" fill="#FFD39F" p-id="4456"></path><path d="M844.95 612.05h11.45c3.19 0 6.07 0.96 8.16 2.5s3.38 3.68 3.38 6.04v37.36c0 2.36-1.29 4.49-3.38 6.04-2.09 1.54-4.97 2.5-8.16 2.5h-11.45v-54.44z" fill="#F2A65A" p-id="4457"></path><path d="M707.68 772.32h-22.9c-6.37 0-11.54-5.17-11.54-11.54v-31.35c0-6.37 5.17-11.54 11.54-11.54h22.9c6.37 0 11.54 5.17 11.54 11.54v31.35c0 6.38-5.17 11.54-11.54 11.54z" fill="#FFD39F" p-id="4458"></path><path d="M696.23 717.9h11.45c3.19 0 6.07 0.96 8.16 2.5s3.38 3.68 3.38 6.04v37.36c0 2.36-1.29 4.49-3.38 6.04-2.09 1.54-4.97 2.5-8.16 2.5h-11.45V717.9z" fill="#F2A65A" p-id="4459"></path><path d="M782.04 772.32h-22.9c-6.37 0-11.54-5.17-11.54-11.54v-31.35c0-6.37 5.17-11.54 11.54-11.54h22.9c6.37 0 11.54 5.17 11.54 11.54v31.35c0 6.38-5.16 11.54-11.54 11.54z" fill="#FFD39F" p-id="4460"></path><path d="M770.59 717.9h11.45c3.19 0 6.07 0.96 8.16 2.5s3.38 3.68 3.38 6.04v37.36c0 2.36-1.29 4.49-3.38 6.04-2.09 1.54-4.97 2.5-8.16 2.5h-11.45V717.9z" fill="#F2A65A" p-id="4461"></path><path d="M856.41 772.32h-22.9c-6.37 0-11.54-5.17-11.54-11.54v-31.35c0-6.37 5.17-11.54 11.54-11.54h22.9c6.37 0 11.54 5.17 11.54 11.54v31.35c-0.01 6.38-5.17 11.54-11.54 11.54z" fill="#FFD39F" p-id="4462"></path><path d="M844.95 717.9h11.45c3.19 0 6.07 0.96 8.16 2.5s3.38 3.68 3.38 6.04v37.36c0 2.36-1.29 4.49-3.38 6.04-2.09 1.54-4.97 2.5-8.16 2.5h-11.45V717.9z" fill="#F2A65A" p-id="4463"></path><path d="M707.68 878.17h-22.9c-6.37 0-11.54-5.17-11.54-11.54v-31.35c0-6.37 5.17-11.54 11.54-11.54h22.9c6.37 0 11.54 5.17 11.54 11.54v31.35c0 6.38-5.17 11.54-11.54 11.54z" fill="#FFD39F" p-id="4464"></path><path d="M696.23 823.75h11.45c3.19 0 6.07 0.96 8.16 2.5s3.38 3.68 3.38 6.04v37.36c0 2.36-1.29 4.49-3.38 6.04-2.09 1.54-4.97 2.5-8.16 2.5h-11.45v-54.44z" fill="#F2A65A" p-id="4465"></path><path d="M782.04 878.17h-22.9c-6.37 0-11.54-5.17-11.54-11.54v-31.35c0-6.37 5.17-11.54 11.54-11.54h22.9c6.37 0 11.54 5.17 11.54 11.54v31.35c0 6.38-5.16 11.54-11.54 11.54z" fill="#FFD39F" p-id="4466"></path><path d="M770.59 823.75h11.45c3.19 0 6.07 0.96 8.16 2.5s3.38 3.68 3.38 6.04v37.36c0 2.36-1.29 4.49-3.38 6.04-2.09 1.54-4.97 2.5-8.16 2.5h-11.45v-54.44z" fill="#F2A65A" p-id="4467"></path><path d="M856.41 878.17h-22.9c-6.37 0-11.54-5.17-11.54-11.54v-31.35c0-6.37 5.17-11.54 11.54-11.54h22.9c6.37 0 11.54 5.17 11.54 11.54v31.35c-0.01 6.38-5.17 11.54-11.54 11.54z" fill="#FFD39F" p-id="4468"></path><path d="M844.95 823.75h11.45c3.19 0 6.07 0.96 8.16 2.5s3.38 3.68 3.38 6.04v37.36c0 2.36-1.29 4.49-3.38 6.04-2.09 1.54-4.97 2.5-8.16 2.5h-11.45v-54.44z" fill="#F2A65A" p-id="4469"></path><path d="M518.26 292.73H230.4c-11.05 0-20-8.95-20-20V163.71c0-11.05 8.95-20 20-20h287.86c11.05 0 20 8.95 20 20v109.03c0 11.04-8.96 19.99-20 19.99z" fill="#FFD39F" p-id="4470"></path><path d="M735.48 461.2h37.4v37.4h-37.4z" fill="#13AEAD" p-id="4471"></path><path d="M660.69 461.2h37.4v37.4h-37.4z" fill="#F9CF8F" p-id="4472"></path><path d="M698.09 461.2h37.4v37.4h-37.4z" fill="#FA4817" p-id="4473"></path><path d="M810.28 461.2h37.4v37.4h-37.4z" fill="#E53E65" p-id="4474"></path><path d="M847.67 461.2h37.4v37.4h-37.4z" fill="#F2A65A" p-id="4475"></path><path d="M772.88 461.2h37.4v37.4h-37.4z" fill="#5B52AF" p-id="4476"></path><path d="M173.21 644.91c-5.52 0-10-4.48-10-10v-70.34c0-5.52 4.48-10 10-10s10 4.48 10 10v70.34c0 5.52-4.48 10-10 10zM173.21 538.93c-5.52 0-10-4.48-10-10v-11.25c0-5.52 4.48-10 10-10s10 4.48 10 10v11.25c0 5.53-4.48 10-10 10z" fill="#FFFFFF" p-id="4477"></path><path d="M582.48 224.83m-9.26 0a9.26 9.26 0 1 0 18.52 0 9.26 9.26 0 1 0-18.52 0Z" fill="#23307A" p-id="4478"></path><path d="M498.58 224.83m-9.26 0a9.26 9.26 0 1 0 18.52 0 9.26 9.26 0 1 0-18.52 0Z" fill="#23307A" p-id="4479"></path><path d="M414.68 224.83m-9.26 0a9.26 9.26 0 1 0 18.52 0 9.26 9.26 0 1 0-18.52 0Z" fill="#23307A" p-id="4480"></path><path d="M582.48 296m-9.26 0a9.26 9.26 0 1 0 18.52 0 9.26 9.26 0 1 0-18.52 0Z" fill="#23307A" p-id="4481"></path><path d="M498.58 296m-9.26 0a9.26 9.26 0 1 0 18.52 0 9.26 9.26 0 1 0-18.52 0Z" fill="#23307A" p-id="4482"></path><path d="M414.68 296m-9.26 0a9.26 9.26 0 1 0 18.52 0 9.26 9.26 0 1 0-18.52 0Z" fill="#23307A" p-id="4483"></path><path d="M582.48 367.17m-9.26 0a9.26 9.26 0 1 0 18.52 0 9.26 9.26 0 1 0-18.52 0Z" fill="#23307A" p-id="4484"></path><path d="M498.58 367.17m-9.26 0a9.26 9.26 0 1 0 18.52 0 9.26 9.26 0 1 0-18.52 0Z" fill="#23307A" p-id="4485"></path><path d="M414.68 367.17m-9.26 0a9.26 9.26 0 1 0 18.52 0 9.26 9.26 0 1 0-18.52 0Z" fill="#23307A" p-id="4486"></path><path d="M582.48 438.34m-9.26 0a9.26 9.26 0 1 0 18.52 0 9.26 9.26 0 1 0-18.52 0Z" fill="#23307A" p-id="4487"></path><path d="M498.58 438.34m-9.26 0a9.26 9.26 0 1 0 18.52 0 9.26 9.26 0 1 0-18.52 0Z" fill="#23307A" p-id="4488"></path><path d="M414.68 438.34m-9.26 0a9.26 9.26 0 1 0 18.52 0 9.26 9.26 0 1 0-18.52 0Z" fill="#23307A" p-id="4489"></path><path d="M582.48 518.77c5.11 0 9.26-4.15 9.26-9.26 0-5.11-4.15-9.26-9.26-9.26-5.11 0-9.26 4.15-9.26 9.26 0 5.11 4.15 9.26 9.26 9.26zM498.58 518.77c5.11 0 9.26-4.15 9.26-9.26 0-5.11-4.15-9.26-9.26-9.26s-9.26 4.15-9.26 9.26c0 5.11 4.14 9.26 9.26 9.26zM414.68 518.77c5.11 0 9.26-4.15 9.26-9.26 0-5.11-4.15-9.26-9.26-9.26-5.11 0-9.26 4.15-9.26 9.26 0 5.11 4.14 9.26 9.26 9.26z" fill="#23307A" p-id="4490"></path><path d="M582.48 580.68m-9.26 0a9.26 9.26 0 1 0 18.52 0 9.26 9.26 0 1 0-18.52 0Z" fill="#23307A" p-id="4491"></path><path d="M498.58 580.68m-9.26 0a9.26 9.26 0 1 0 18.52 0 9.26 9.26 0 1 0-18.52 0Z" fill="#23307A" p-id="4492"></path><path d="M414.68 580.68m-9.26 0a9.26 9.26 0 1 0 18.52 0 9.26 9.26 0 1 0-18.52 0Z" fill="#23307A" p-id="4493"></path><path d="M582.48 661.11c5.11 0 9.26-4.15 9.26-9.26 0-5.11-4.15-9.26-9.26-9.26-5.11 0-9.26 4.15-9.26 9.26 0 5.11 4.15 9.26 9.26 9.26zM498.58 661.11c5.11 0 9.26-4.15 9.26-9.26 0-5.11-4.15-9.26-9.26-9.26s-9.26 4.15-9.26 9.26c0 5.11 4.14 9.26 9.26 9.26zM414.68 661.11c5.11 0 9.26-4.15 9.26-9.26 0-5.11-4.15-9.26-9.26-9.26-5.11 0-9.26 4.15-9.26 9.26 0 5.11 4.14 9.26 9.26 9.26z" fill="#23307A" p-id="4494"></path><path d="M582.48 723.01m-9.26 0a9.26 9.26 0 1 0 18.52 0 9.26 9.26 0 1 0-18.52 0Z" fill="#23307A" p-id="4495"></path><path d="M498.58 723.01m-9.26 0a9.26 9.26 0 1 0 18.52 0 9.26 9.26 0 1 0-18.52 0Z" fill="#23307A" p-id="4496"></path><path d="M414.68 723.01m-9.26 0a9.26 9.26 0 1 0 18.52 0 9.26 9.26 0 1 0-18.52 0Z" fill="#23307A" p-id="4497"></path><path d="M582.48 794.18m-9.26 0a9.26 9.26 0 1 0 18.52 0 9.26 9.26 0 1 0-18.52 0Z" fill="#23307A" p-id="4498"></path><path d="M498.58 794.18m-9.26 0a9.26 9.26 0 1 0 18.52 0 9.26 9.26 0 1 0-18.52 0Z" fill="#23307A" p-id="4499"></path><path d="M414.68 794.18m-9.26 0a9.26 9.26 0 1 0 18.52 0 9.26 9.26 0 1 0-18.52 0Z" fill="#23307A" p-id="4500"></path><path d="M582.48 865.35m-9.26 0a9.26 9.26 0 1 0 18.52 0 9.26 9.26 0 1 0-18.52 0Z" fill="#23307A" p-id="4501"></path><path d="M498.58 865.35m-9.26 0a9.26 9.26 0 1 0 18.52 0 9.26 9.26 0 1 0-18.52 0Z" fill="#23307A" p-id="4502"></path><path d="M414.68 865.35m-9.26 0a9.26 9.26 0 1 0 18.52 0 9.26 9.26 0 1 0-18.52 0Z" fill="#23307A" p-id="4503"></path><path d="M582.48 936.52m-9.26 0a9.26 9.26 0 1 0 18.52 0 9.26 9.26 0 1 0-18.52 0Z" fill="#23307A" p-id="4504"></path><path d="M498.58 936.52m-9.26 0a9.26 9.26 0 1 0 18.52 0 9.26 9.26 0 1 0-18.52 0Z" fill="#23307A" p-id="4505"></path><path d="M414.68 936.52m-9.26 0a9.26 9.26 0 1 0 18.52 0 9.26 9.26 0 1 0-18.52 0Z" fill="#23307A" p-id="4506"></path><path d="M895.92 535.62c-5.11 0-9.26 4.15-9.26 9.26 0 5.11 4.15 9.26 9.26 9.26 5.11 0 9.26-4.15 9.26-9.26 0.01-5.11-4.14-9.26-9.26-9.26zM812.02 535.62c-5.11 0-9.26 4.15-9.26 9.26 0 5.11 4.15 9.26 9.26 9.26 5.11 0 9.26-4.15 9.26-9.26 0-5.11-4.14-9.26-9.26-9.26zM895.92 606.79c-5.11 0-9.26 4.15-9.26 9.26 0 5.11 4.15 9.26 9.26 9.26 5.11 0 9.26-4.15 9.26-9.26 0.01-5.12-4.14-9.26-9.26-9.26zM812.02 606.79c-5.11 0-9.26 4.15-9.26 9.26 0 5.11 4.15 9.26 9.26 9.26 5.11 0 9.26-4.15 9.26-9.26 0-5.12-4.14-9.26-9.26-9.26zM895.92 677.96c-5.11 0-9.26 4.15-9.26 9.26s4.15 9.26 9.26 9.26c5.11 0 9.26-4.15 9.26-9.26s-4.14-9.26-9.26-9.26zM812.02 677.96c-5.11 0-9.26 4.15-9.26 9.26s4.15 9.26 9.26 9.26c5.11 0 9.26-4.15 9.26-9.26s-4.14-9.26-9.26-9.26zM895.92 749.13c-5.11 0-9.26 4.15-9.26 9.26 0 5.11 4.15 9.26 9.26 9.26 5.11 0 9.26-4.15 9.26-9.26 0.01-5.12-4.14-9.26-9.26-9.26zM812.02 749.13c-5.11 0-9.26 4.15-9.26 9.26 0 5.11 4.15 9.26 9.26 9.26 5.11 0 9.26-4.15 9.26-9.26 0-5.12-4.14-9.26-9.26-9.26zM895.92 820.29c-5.11 0-9.26 4.15-9.26 9.26 0 5.11 4.15 9.26 9.26 9.26 5.11 0 9.26-4.15 9.26-9.26 0.01-5.11-4.14-9.26-9.26-9.26zM812.02 820.29c-5.11 0-9.26 4.15-9.26 9.26 0 5.11 4.15 9.26 9.26 9.26 5.11 0 9.26-4.15 9.26-9.26 0-5.11-4.14-9.26-9.26-9.26zM895.92 891.46c-5.11 0-9.26 4.15-9.26 9.26 0 5.11 4.15 9.26 9.26 9.26 5.11 0 9.26-4.15 9.26-9.26 0.01-5.11-4.14-9.26-9.26-9.26zM812.02 891.46c-5.11 0-9.26 4.15-9.26 9.26 0 5.11 4.15 9.26 9.26 9.26 5.11 0 9.26-4.15 9.26-9.26 0-5.11-4.14-9.26-9.26-9.26z" fill="#23307A" p-id="4507"></path><path d="M274.53 510.19h-37.12c-10.33 0-18.7-8.37-18.7-18.7v-50.8c0-10.33 8.37-18.7 18.7-18.7h37.12c10.33 0 18.7 8.37 18.7 18.7v50.8c0 10.32-8.37 18.7-18.7 18.7z" fill="#FFD39F" p-id="4508"></path><path d="M255.97 421.98h18.56c5.16 0 9.84 1.55 13.22 4.05 3.38 2.5 5.48 5.96 5.48 9.78v60.54c0 3.82-2.09 7.28-5.48 9.78-3.38 2.5-8.06 4.05-13.22 4.05h-18.56v-88.2z" fill="#F2A65A" p-id="4509"></path><path d="M395.04 510.19h-37.12c-10.33 0-18.7-8.37-18.7-18.7v-50.8c0-10.33 8.37-18.7 18.7-18.7h37.12c10.33 0 18.7 8.37 18.7 18.7v50.8c0 10.32-8.37 18.7-18.7 18.7z" fill="#FFD39F" p-id="4510"></path><path d="M376.48 421.98h18.56c5.16 0 9.84 1.55 13.22 4.05 3.38 2.5 5.48 5.96 5.48 9.78v60.54c0 3.82-2.09 7.28-5.48 9.78-3.38 2.5-8.06 4.05-13.22 4.05h-18.56v-88.2z" fill="#F2A65A" p-id="4511"></path><path d="M515.55 510.19h-37.12c-10.33 0-18.7-8.37-18.7-18.7v-50.8c0-10.33 8.37-18.7 18.7-18.7h37.12c10.33 0 18.7 8.37 18.7 18.7v50.8c0 10.32-8.37 18.7-18.7 18.7z" fill="#FFD39F" p-id="4512"></path><path d="M497 421.98h18.56c5.16 0 9.84 1.55 13.22 4.05 3.38 2.5 5.48 5.96 5.48 9.78v60.54c0 3.82-2.09 7.28-5.48 9.78-3.38 2.5-8.06 4.05-13.22 4.05H497v-88.2z" fill="#F2A65A" p-id="4513"></path><path d="M274.53 681.73h-37.12c-10.33 0-18.7-8.37-18.7-18.7v-50.8c0-10.33 8.37-18.7 18.7-18.7h37.12c10.33 0 18.7 8.37 18.7 18.7v50.8c0 10.32-8.37 18.7-18.7 18.7z" fill="#FFD39F" p-id="4514"></path><path d="M255.97 593.53h18.56c5.16 0 9.84 1.55 13.22 4.05 3.38 2.5 5.48 5.96 5.48 9.78v60.54c0 3.82-2.09 7.28-5.48 9.78-3.38 2.5-8.06 4.05-13.22 4.05h-18.56v-88.2z" fill="#F2A65A" p-id="4515"></path><path d="M395.04 681.73h-37.12c-10.33 0-18.7-8.37-18.7-18.7v-50.8c0-10.33 8.37-18.7 18.7-18.7h37.12c10.33 0 18.7 8.37 18.7 18.7v50.8c0 10.32-8.37 18.7-18.7 18.7z" fill="#FFD39F" p-id="4516"></path><path d="M376.48 593.53h18.56c5.16 0 9.84 1.55 13.22 4.05s5.48 5.96 5.48 9.78v60.54c0 3.82-2.09 7.28-5.48 9.78s-8.06 4.05-13.22 4.05h-18.56v-88.2z" fill="#F2A65A" p-id="4517"></path><path d="M515.55 681.73h-37.12c-10.33 0-18.7-8.37-18.7-18.7v-50.8c0-10.33 8.37-18.7 18.7-18.7h37.12c10.33 0 18.7 8.37 18.7 18.7v50.8c0 10.32-8.37 18.7-18.7 18.7z" fill="#FFD39F" p-id="4518"></path><path d="M497 593.53h18.56c5.16 0 9.84 1.55 13.22 4.05 3.38 2.5 5.48 5.96 5.48 9.78v60.54c0 3.82-2.09 7.28-5.48 9.78-3.38 2.5-8.06 4.05-13.22 4.05H497v-88.2z" fill="#F2A65A" p-id="4519"></path><path d="M274.53 853.27h-37.12c-10.33 0-18.7-8.37-18.7-18.7v-50.8c0-10.33 8.37-18.7 18.7-18.7h37.12c10.33 0 18.7 8.37 18.7 18.7v50.8c0 10.33-8.37 18.7-18.7 18.7z" fill="#FFD39F" p-id="4520"></path><path d="M255.97 765.07h18.56c5.16 0 9.84 1.55 13.22 4.05 3.38 2.5 5.48 5.96 5.48 9.78v60.54c0 3.82-2.09 7.28-5.48 9.78-3.38 2.5-8.06 4.05-13.22 4.05h-18.56v-88.2z" fill="#F2A65A" p-id="4521"></path><path d="M395.04 853.27h-37.12c-10.33 0-18.7-8.37-18.7-18.7v-50.8c0-10.33 8.37-18.7 18.7-18.7h37.12c10.33 0 18.7 8.37 18.7 18.7v50.8c0 10.33-8.37 18.7-18.7 18.7z" fill="#FFD39F" p-id="4522"></path><path d="M376.48 765.07h18.56c5.16 0 9.84 1.55 13.22 4.05s5.48 5.96 5.48 9.78v60.54c0 3.82-2.09 7.28-5.48 9.78s-8.06 4.05-13.22 4.05h-18.56v-88.2z" fill="#F2A65A" p-id="4523"></path><path d="M515.55 853.27h-37.12c-10.33 0-18.7-8.37-18.7-18.7v-50.8c0-10.33 8.37-18.7 18.7-18.7h37.12c10.33 0 18.7 8.37 18.7 18.7v50.8c0 10.33-8.37 18.7-18.7 18.7z" fill="#FFD39F" p-id="4524"></path><path d="M497 765.07h18.56c5.16 0 9.84 1.55 13.22 4.05 3.38 2.5 5.48 5.96 5.48 9.78v60.54c0 3.82-2.09 7.28-5.48 9.78-3.38 2.5-8.06 4.05-13.22 4.05H497v-88.2z" fill="#F2A65A" p-id="4525"></path><path d="M374.33 143.71h145.23c5.16 0 9.84 2.09 13.22 5.48 3.38 3.38 5.48 8.06 5.48 13.22v111.64c0 5.16-2.09 9.84-5.48 13.22a18.654 18.654 0 0 1-13.22 5.48H374.33V143.71z" fill="#F2A65A" p-id="4526"></path><path d="M401.42 158.27a24.5 24.5 0 0 0-21.14 6.87l-11.29 11.29-7.08-7.08c-13.36-13.36-35.01-13.36-48.37 0s-13.36 35.01 0 48.37l7.08 7.08 48.37 48.37 48.37-48.37 7.08-7.08c18.81-18.81 11.14-54.07-23.02-59.45z" fill="#FF2E71" p-id="4527"></path><path d="M368.99 176.43l-7.08-7.08c-13.36-13.36-35.01-13.36-48.37 0s-13.36 35.01 0 48.37l7.08 7.08 48.37 48.37v-96.74z" fill="#FFD39F" p-id="4528"></path></svg>